<mxfile host="app.diagrams.net" modified="2023-08-06T13:23:15.203Z" agent="Mozilla/5.0 (Windows NT 10.0; Win64; x64) AppleWebKit/537.36 (KHTML, like Gecko) Chrome/114.0.0.0 YaBrowser/23.7.1.1140 Yowser/2.5 Safari/537.36" etag="mmDPbyhE8IP4NosCzECm" version="21.6.6" type="device">
  <diagram name="Страница 1" id="z17GV1I0XhzGVbb2jWiG">
    <mxGraphModel dx="956" dy="529" grid="1" gridSize="10" guides="1" tooltips="1" connect="1" arrows="1" fold="1" page="1" pageScale="1" pageWidth="827" pageHeight="1169" math="0" shadow="0">
      <root>
        <mxCell id="0" />
        <mxCell id="1" parent="0" />
        <mxCell id="dxZAeb_6qD5I8CAQ3KL4-20" value="" style="rounded=0;whiteSpace=wrap;html=1;" vertex="1" parent="1">
          <mxGeometry x="310" y="20" width="190" height="80" as="geometry" />
        </mxCell>
        <mxCell id="dxZAeb_6qD5I8CAQ3KL4-3" value="" style="group" vertex="1" connectable="0" parent="1">
          <mxGeometry x="110" y="45" width="70" height="30" as="geometry" />
        </mxCell>
        <mxCell id="dxZAeb_6qD5I8CAQ3KL4-1" value="" style="rounded=0;whiteSpace=wrap;html=1;" vertex="1" parent="dxZAeb_6qD5I8CAQ3KL4-3">
          <mxGeometry width="70" height="30" as="geometry" />
        </mxCell>
        <mxCell id="dxZAeb_6qD5I8CAQ3KL4-2" value="teleBot" style="text;html=1;strokeColor=none;fillColor=none;align=center;verticalAlign=middle;whiteSpace=wrap;rounded=0;" vertex="1" parent="dxZAeb_6qD5I8CAQ3KL4-3">
          <mxGeometry x="5" width="60" height="30" as="geometry" />
        </mxCell>
        <mxCell id="dxZAeb_6qD5I8CAQ3KL4-6" value="" style="endArrow=classic;html=1;rounded=0;" edge="1" parent="dxZAeb_6qD5I8CAQ3KL4-3" source="dxZAeb_6qD5I8CAQ3KL4-1">
          <mxGeometry width="50" height="50" relative="1" as="geometry">
            <mxPoint x="10" y="25" as="sourcePoint" />
            <mxPoint x="100" y="15" as="targetPoint" />
          </mxGeometry>
        </mxCell>
        <mxCell id="dxZAeb_6qD5I8CAQ3KL4-99" value="" style="endArrow=none;html=1;rounded=0;" edge="1" parent="dxZAeb_6qD5I8CAQ3KL4-3">
          <mxGeometry width="50" height="50" relative="1" as="geometry">
            <mxPoint y="15" as="sourcePoint" />
            <mxPoint x="-20" y="15" as="targetPoint" />
          </mxGeometry>
        </mxCell>
        <mxCell id="dxZAeb_6qD5I8CAQ3KL4-9" value="" style="group" vertex="1" connectable="0" parent="1">
          <mxGeometry x="210" y="45" width="70" height="30" as="geometry" />
        </mxCell>
        <mxCell id="dxZAeb_6qD5I8CAQ3KL4-10" value="" style="rounded=0;whiteSpace=wrap;html=1;" vertex="1" parent="dxZAeb_6qD5I8CAQ3KL4-9">
          <mxGeometry width="70" height="30" as="geometry" />
        </mxCell>
        <mxCell id="dxZAeb_6qD5I8CAQ3KL4-11" value="/start" style="text;html=1;strokeColor=none;fillColor=none;align=center;verticalAlign=middle;whiteSpace=wrap;rounded=0;" vertex="1" parent="dxZAeb_6qD5I8CAQ3KL4-9">
          <mxGeometry x="5" width="60" height="30" as="geometry" />
        </mxCell>
        <mxCell id="dxZAeb_6qD5I8CAQ3KL4-14" value="" style="endArrow=classic;html=1;rounded=0;" edge="1" parent="1">
          <mxGeometry width="50" height="50" relative="1" as="geometry">
            <mxPoint x="280" y="59.86" as="sourcePoint" />
            <mxPoint x="310" y="59.86" as="targetPoint" />
          </mxGeometry>
        </mxCell>
        <mxCell id="dxZAeb_6qD5I8CAQ3KL4-15" value="Welcome message" style="text;html=1;strokeColor=none;fillColor=none;align=center;verticalAlign=middle;whiteSpace=wrap;rounded=0;" vertex="1" parent="1">
          <mxGeometry x="320" y="25" width="170" height="30" as="geometry" />
        </mxCell>
        <mxCell id="dxZAeb_6qD5I8CAQ3KL4-21" value="Assortment" style="rounded=0;whiteSpace=wrap;html=1;fillColor=#008a00;strokeColor=none;fontColor=#000000;" vertex="1" parent="1">
          <mxGeometry x="320" y="65" width="80" height="20" as="geometry" />
        </mxCell>
        <mxCell id="dxZAeb_6qD5I8CAQ3KL4-22" value="Feedback" style="rounded=0;whiteSpace=wrap;html=1;fillColor=#6f7b6f;strokeColor=none;fontColor=#000000;" vertex="1" parent="1">
          <mxGeometry x="410" y="65" width="80" height="20" as="geometry" />
        </mxCell>
        <mxCell id="dxZAeb_6qD5I8CAQ3KL4-25" value="" style="endArrow=classic;html=1;rounded=0;" edge="1" parent="1" source="dxZAeb_6qD5I8CAQ3KL4-22">
          <mxGeometry width="50" height="50" relative="1" as="geometry">
            <mxPoint x="450" y="135" as="sourcePoint" />
            <mxPoint x="450" y="125" as="targetPoint" />
          </mxGeometry>
        </mxCell>
        <mxCell id="dxZAeb_6qD5I8CAQ3KL4-26" value="" style="rounded=0;whiteSpace=wrap;html=1;" vertex="1" parent="1">
          <mxGeometry x="415" y="125" width="75" height="50" as="geometry" />
        </mxCell>
        <mxCell id="dxZAeb_6qD5I8CAQ3KL4-27" value="Redirect on VK or Database" style="text;html=1;strokeColor=none;fillColor=none;align=center;verticalAlign=middle;whiteSpace=wrap;rounded=0;" vertex="1" parent="1">
          <mxGeometry x="415" y="125" width="75" height="50" as="geometry" />
        </mxCell>
        <mxCell id="dxZAeb_6qD5I8CAQ3KL4-28" value="" style="rounded=0;whiteSpace=wrap;html=1;" vertex="1" parent="1">
          <mxGeometry x="320" y="125" width="80" height="120" as="geometry" />
        </mxCell>
        <mxCell id="dxZAeb_6qD5I8CAQ3KL4-29" value="Photo" style="text;html=1;strokeColor=none;fillColor=#1ba1e2;align=center;verticalAlign=middle;whiteSpace=wrap;rounded=0;fontColor=#ffffff;" vertex="1" parent="1">
          <mxGeometry x="320" y="125" width="80" height="50" as="geometry" />
        </mxCell>
        <mxCell id="dxZAeb_6qD5I8CAQ3KL4-30" value="Prev" style="rounded=0;whiteSpace=wrap;html=1;fillColor=#ff0000;fillStyle=auto;strokeColor=none;fontSize=9;" vertex="1" parent="1">
          <mxGeometry x="330" y="195" width="30" height="10" as="geometry" />
        </mxCell>
        <mxCell id="dxZAeb_6qD5I8CAQ3KL4-32" value="&lt;font style=&quot;font-size: 9px;&quot;&gt;Next&lt;/font&gt;" style="rounded=0;whiteSpace=wrap;html=1;fillColor=#008a00;fontColor=#ffffff;strokeColor=none;" vertex="1" parent="1">
          <mxGeometry x="360" y="195" width="30" height="10" as="geometry" />
        </mxCell>
        <mxCell id="dxZAeb_6qD5I8CAQ3KL4-33" value="&lt;p style=&quot;line-height: 60%;&quot;&gt;&lt;span style=&quot;font-size: 8px;&quot;&gt;Back to main&lt;/span&gt;&lt;/p&gt;" style="rounded=0;whiteSpace=wrap;html=1;fillColor=#999999;gradientColor=none;strokeColor=none;" vertex="1" parent="1">
          <mxGeometry x="330" y="215" width="60" height="20" as="geometry" />
        </mxCell>
        <mxCell id="dxZAeb_6qD5I8CAQ3KL4-34" value="Database&lt;br&gt;MySQL" style="rounded=0;whiteSpace=wrap;html=1;" vertex="1" parent="1">
          <mxGeometry x="110" y="245" width="70" height="35" as="geometry" />
        </mxCell>
        <mxCell id="dxZAeb_6qD5I8CAQ3KL4-42" value="" style="endArrow=none;html=1;rounded=0;exitX=1;exitY=1;exitDx=0;exitDy=0;" edge="1" parent="1" source="dxZAeb_6qD5I8CAQ3KL4-32">
          <mxGeometry width="50" height="50" relative="1" as="geometry">
            <mxPoint x="390" y="245" as="sourcePoint" />
            <mxPoint x="420" y="205" as="targetPoint" />
          </mxGeometry>
        </mxCell>
        <mxCell id="dxZAeb_6qD5I8CAQ3KL4-43" value="" style="endArrow=none;html=1;rounded=0;" edge="1" parent="1">
          <mxGeometry width="50" height="50" relative="1" as="geometry">
            <mxPoint x="420" y="205" as="sourcePoint" />
            <mxPoint x="420" y="265" as="targetPoint" />
          </mxGeometry>
        </mxCell>
        <mxCell id="dxZAeb_6qD5I8CAQ3KL4-44" value="" style="endArrow=none;html=1;rounded=0;exitX=0;exitY=0;exitDx=0;exitDy=0;" edge="1" parent="1">
          <mxGeometry width="50" height="50" relative="1" as="geometry">
            <mxPoint x="310" y="265" as="sourcePoint" />
            <mxPoint x="420" y="265" as="targetPoint" />
          </mxGeometry>
        </mxCell>
        <mxCell id="dxZAeb_6qD5I8CAQ3KL4-140" value="goods.id + 1 -&amp;gt; Photo" style="edgeLabel;html=1;align=center;verticalAlign=middle;resizable=0;points=[];labelBorderColor=default;" vertex="1" connectable="0" parent="dxZAeb_6qD5I8CAQ3KL4-44">
          <mxGeometry x="0.1818" relative="1" as="geometry">
            <mxPoint x="-10" y="-2" as="offset" />
          </mxGeometry>
        </mxCell>
        <mxCell id="dxZAeb_6qD5I8CAQ3KL4-46" value="" style="endArrow=classic;html=1;rounded=0;endSize=6;startSize=6;targetPerimeterSpacing=0;jumpStyle=line;" edge="1" parent="1">
          <mxGeometry width="50" height="50" relative="1" as="geometry">
            <mxPoint x="309.84" y="265" as="sourcePoint" />
            <mxPoint x="309.84" y="235" as="targetPoint" />
          </mxGeometry>
        </mxCell>
        <mxCell id="dxZAeb_6qD5I8CAQ3KL4-47" value="goods info by id(first) -&amp;gt; Photo, Description, Cost" style="text;html=1;strokeColor=none;fillColor=none;align=center;verticalAlign=middle;whiteSpace=wrap;rounded=0;" vertex="1" parent="1">
          <mxGeometry x="180" y="110" width="140" height="30" as="geometry" />
        </mxCell>
        <mxCell id="dxZAeb_6qD5I8CAQ3KL4-49" value="&lt;p style=&quot;line-height: 70%;&quot;&gt;&lt;font style=&quot;font-size: 5px;&quot;&gt;goods.id.amount &amp;lt;&amp;gt; 0&lt;/font&gt;&lt;/p&gt;" style="rounded=0;whiteSpace=wrap;html=1;" vertex="1" parent="1">
          <mxGeometry x="240" y="215" width="70" height="20" as="geometry" />
        </mxCell>
        <mxCell id="dxZAeb_6qD5I8CAQ3KL4-51" value="" style="endArrow=classic;html=1;rounded=0;entryX=0.858;entryY=0.989;entryDx=0;entryDy=0;entryPerimeter=0;" edge="1" parent="1" target="dxZAeb_6qD5I8CAQ3KL4-47">
          <mxGeometry width="50" height="50" relative="1" as="geometry">
            <mxPoint x="300" y="215" as="sourcePoint" />
            <mxPoint x="300" y="143" as="targetPoint" />
            <Array as="points">
              <mxPoint x="300" y="195" />
              <mxPoint x="300" y="155" />
            </Array>
          </mxGeometry>
        </mxCell>
        <mxCell id="dxZAeb_6qD5I8CAQ3KL4-53" value="True" style="edgeLabel;html=1;align=center;verticalAlign=middle;resizable=0;points=[];labelBorderColor=default;" vertex="1" connectable="0" parent="dxZAeb_6qD5I8CAQ3KL4-51">
          <mxGeometry x="-0.7389" relative="1" as="geometry">
            <mxPoint as="offset" />
          </mxGeometry>
        </mxCell>
        <mxCell id="dxZAeb_6qD5I8CAQ3KL4-54" value="" style="endArrow=none;html=1;rounded=0;entryX=0.326;entryY=1.021;entryDx=0;entryDy=0;entryPerimeter=0;" edge="1" parent="1">
          <mxGeometry width="50" height="50" relative="1" as="geometry">
            <mxPoint x="290.44" y="304.58" as="sourcePoint" />
            <mxPoint x="290" y="235.00000000000003" as="targetPoint" />
            <Array as="points">
              <mxPoint x="290.44" y="264.58" />
            </Array>
          </mxGeometry>
        </mxCell>
        <mxCell id="dxZAeb_6qD5I8CAQ3KL4-58" value="False" style="edgeLabel;html=1;align=center;verticalAlign=middle;resizable=0;points=[];labelBorderColor=default;" vertex="1" connectable="0" parent="dxZAeb_6qD5I8CAQ3KL4-54">
          <mxGeometry x="0.8204" relative="1" as="geometry">
            <mxPoint y="4" as="offset" />
          </mxGeometry>
        </mxCell>
        <mxCell id="dxZAeb_6qD5I8CAQ3KL4-55" value="" style="endArrow=none;html=1;rounded=0;" edge="1" parent="1">
          <mxGeometry width="50" height="50" relative="1" as="geometry">
            <mxPoint x="290" y="305" as="sourcePoint" />
            <mxPoint x="440" y="305" as="targetPoint" />
          </mxGeometry>
        </mxCell>
        <mxCell id="dxZAeb_6qD5I8CAQ3KL4-56" value="" style="endArrow=none;html=1;rounded=0;" edge="1" parent="1">
          <mxGeometry width="50" height="50" relative="1" as="geometry">
            <mxPoint x="440" y="235" as="sourcePoint" />
            <mxPoint x="440" y="305" as="targetPoint" />
          </mxGeometry>
        </mxCell>
        <mxCell id="dxZAeb_6qD5I8CAQ3KL4-57" value="" style="endArrow=classic;html=1;rounded=0;" edge="1" parent="1">
          <mxGeometry width="50" height="50" relative="1" as="geometry">
            <mxPoint x="440" y="235" as="sourcePoint" />
            <mxPoint x="420" y="235" as="targetPoint" />
          </mxGeometry>
        </mxCell>
        <mxCell id="dxZAeb_6qD5I8CAQ3KL4-59" value="" style="endArrow=none;html=1;rounded=0;" edge="1" parent="1" source="dxZAeb_6qD5I8CAQ3KL4-28">
          <mxGeometry width="50" height="50" relative="1" as="geometry">
            <mxPoint x="410" y="184.9" as="sourcePoint" />
            <mxPoint x="460" y="184.9" as="targetPoint" />
          </mxGeometry>
        </mxCell>
        <mxCell id="dxZAeb_6qD5I8CAQ3KL4-63" value="" style="endArrow=none;html=1;rounded=0;" edge="1" parent="1">
          <mxGeometry width="50" height="50" relative="1" as="geometry">
            <mxPoint x="350" y="195" as="sourcePoint" />
            <mxPoint x="350" y="185" as="targetPoint" />
          </mxGeometry>
        </mxCell>
        <mxCell id="dxZAeb_6qD5I8CAQ3KL4-64" value="" style="endArrow=none;html=1;rounded=0;" edge="1" parent="1">
          <mxGeometry width="50" height="50" relative="1" as="geometry">
            <mxPoint x="460" y="325" as="sourcePoint" />
            <mxPoint x="460" y="185" as="targetPoint" />
          </mxGeometry>
        </mxCell>
        <mxCell id="dxZAeb_6qD5I8CAQ3KL4-65" value="" style="endArrow=none;html=1;rounded=0;" edge="1" parent="1">
          <mxGeometry width="50" height="50" relative="1" as="geometry">
            <mxPoint x="460" y="325" as="sourcePoint" />
            <mxPoint x="260" y="325" as="targetPoint" />
          </mxGeometry>
        </mxCell>
        <mxCell id="dxZAeb_6qD5I8CAQ3KL4-142" value="goods.id - 1 -&amp;gt; Photo" style="edgeLabel;html=1;align=center;verticalAlign=middle;resizable=0;points=[];labelBorderColor=default;" vertex="1" connectable="0" parent="dxZAeb_6qD5I8CAQ3KL4-65">
          <mxGeometry x="0.01" relative="1" as="geometry">
            <mxPoint x="7" as="offset" />
          </mxGeometry>
        </mxCell>
        <mxCell id="dxZAeb_6qD5I8CAQ3KL4-68" value="" style="endArrow=none;html=1;rounded=0;" edge="1" parent="1">
          <mxGeometry width="50" height="50" relative="1" as="geometry">
            <mxPoint x="260" y="265" as="sourcePoint" />
            <mxPoint x="260" y="325" as="targetPoint" />
          </mxGeometry>
        </mxCell>
        <mxCell id="dxZAeb_6qD5I8CAQ3KL4-69" value="" style="endArrow=classic;html=1;rounded=0;endSize=6;startSize=6;targetPerimeterSpacing=0;jumpStyle=line;" edge="1" parent="1">
          <mxGeometry width="50" height="50" relative="1" as="geometry">
            <mxPoint x="260" y="265" as="sourcePoint" />
            <mxPoint x="260" y="235" as="targetPoint" />
          </mxGeometry>
        </mxCell>
        <mxCell id="dxZAeb_6qD5I8CAQ3KL4-70" value="" style="endArrow=classic;html=1;rounded=0;" edge="1" parent="1">
          <mxGeometry width="50" height="50" relative="1" as="geometry">
            <mxPoint x="260" y="215" as="sourcePoint" />
            <mxPoint x="260" y="140" as="targetPoint" />
            <Array as="points">
              <mxPoint x="260" y="195" />
              <mxPoint x="260" y="155" />
            </Array>
          </mxGeometry>
        </mxCell>
        <mxCell id="dxZAeb_6qD5I8CAQ3KL4-71" value="True" style="edgeLabel;html=1;align=center;verticalAlign=middle;resizable=0;points=[];labelBorderColor=default;" vertex="1" connectable="0" parent="dxZAeb_6qD5I8CAQ3KL4-70">
          <mxGeometry x="-0.7389" relative="1" as="geometry">
            <mxPoint as="offset" />
          </mxGeometry>
        </mxCell>
        <mxCell id="dxZAeb_6qD5I8CAQ3KL4-72" value="" style="endArrow=none;html=1;rounded=0;" edge="1" parent="1">
          <mxGeometry width="50" height="50" relative="1" as="geometry">
            <mxPoint x="480" y="235" as="sourcePoint" />
            <mxPoint x="480" y="345" as="targetPoint" />
          </mxGeometry>
        </mxCell>
        <mxCell id="dxZAeb_6qD5I8CAQ3KL4-73" value="" style="endArrow=classic;html=1;rounded=0;endSize=6;startSize=6;targetPerimeterSpacing=0;jumpStyle=line;" edge="1" parent="1">
          <mxGeometry width="50" height="50" relative="1" as="geometry">
            <mxPoint x="480" y="235" as="sourcePoint" />
            <mxPoint x="460" y="235" as="targetPoint" />
          </mxGeometry>
        </mxCell>
        <mxCell id="dxZAeb_6qD5I8CAQ3KL4-74" value="" style="endArrow=none;html=1;rounded=0;" edge="1" parent="1">
          <mxGeometry width="50" height="50" relative="1" as="geometry">
            <mxPoint x="240" y="235" as="sourcePoint" />
            <mxPoint x="240" y="345" as="targetPoint" />
          </mxGeometry>
        </mxCell>
        <mxCell id="dxZAeb_6qD5I8CAQ3KL4-76" value="False" style="edgeLabel;html=1;align=center;verticalAlign=middle;resizable=0;points=[];labelBorderColor=default;" vertex="1" connectable="0" parent="dxZAeb_6qD5I8CAQ3KL4-74">
          <mxGeometry x="-0.8145" y="1" relative="1" as="geometry">
            <mxPoint as="offset" />
          </mxGeometry>
        </mxCell>
        <mxCell id="dxZAeb_6qD5I8CAQ3KL4-75" value="" style="endArrow=none;html=1;rounded=0;" edge="1" parent="1">
          <mxGeometry width="50" height="50" relative="1" as="geometry">
            <mxPoint x="480" y="345" as="sourcePoint" />
            <mxPoint x="240" y="345" as="targetPoint" />
          </mxGeometry>
        </mxCell>
        <mxCell id="dxZAeb_6qD5I8CAQ3KL4-81" value="" style="endArrow=classic;html=1;rounded=0;entryX=1;entryY=0.5;entryDx=0;entryDy=0;" edge="1" parent="1">
          <mxGeometry width="50" height="50" relative="1" as="geometry">
            <mxPoint x="530" y="59.83" as="sourcePoint" />
            <mxPoint x="500" y="59.83" as="targetPoint" />
          </mxGeometry>
        </mxCell>
        <mxCell id="dxZAeb_6qD5I8CAQ3KL4-82" value="" style="endArrow=none;html=1;rounded=0;" edge="1" parent="1">
          <mxGeometry width="50" height="50" relative="1" as="geometry">
            <mxPoint x="530" y="225" as="sourcePoint" />
            <mxPoint x="530" y="60" as="targetPoint" />
          </mxGeometry>
        </mxCell>
        <mxCell id="dxZAeb_6qD5I8CAQ3KL4-83" value="" style="endArrow=none;html=1;rounded=0;entryX=1;entryY=0.5;entryDx=0;entryDy=0;jumpStyle=line;" edge="1" parent="1" target="dxZAeb_6qD5I8CAQ3KL4-33">
          <mxGeometry width="50" height="50" relative="1" as="geometry">
            <mxPoint x="530" y="225" as="sourcePoint" />
            <mxPoint x="540" y="70" as="targetPoint" />
          </mxGeometry>
        </mxCell>
        <mxCell id="dxZAeb_6qD5I8CAQ3KL4-86" value="" style="endArrow=none;html=1;rounded=0;" edge="1" parent="1">
          <mxGeometry width="50" height="50" relative="1" as="geometry">
            <mxPoint x="350" y="185.02" as="sourcePoint" />
            <mxPoint x="400" y="185" as="targetPoint" />
          </mxGeometry>
        </mxCell>
        <mxCell id="dxZAeb_6qD5I8CAQ3KL4-87" value="Description" style="text;html=1;strokeColor=none;fillColor=none;align=center;verticalAlign=middle;whiteSpace=wrap;rounded=0;" vertex="1" parent="1">
          <mxGeometry x="342.5" y="175" width="35" height="10" as="geometry" />
        </mxCell>
        <mxCell id="dxZAeb_6qD5I8CAQ3KL4-90" value="" style="rounded=0;whiteSpace=wrap;html=1;" vertex="1" parent="1">
          <mxGeometry x="110" y="115" width="70" height="100" as="geometry" />
        </mxCell>
        <mxCell id="dxZAeb_6qD5I8CAQ3KL4-91" value="&lt;h1 style=&quot;line-height: 50%;&quot;&gt;&lt;font style=&quot;font-size: 12px;&quot;&gt;DB format&lt;/font&gt;&lt;/h1&gt;&lt;div style=&quot;&quot;&gt;&lt;font style=&quot;font-size: 7px;&quot;&gt;GoodsID: INT;&lt;/font&gt;&lt;/div&gt;&lt;div style=&quot;&quot;&gt;&lt;span style=&quot;font-size: 7px;&quot;&gt;Name: STR;&lt;/span&gt;&lt;/div&gt;&lt;div style=&quot;&quot;&gt;&lt;font style=&quot;font-size: 7px;&quot;&gt;PhotoURL: STR;&lt;/font&gt;&lt;/div&gt;&lt;div style=&quot;&quot;&gt;&lt;font style=&quot;font-size: 7px;&quot;&gt;Description: STR;&lt;/font&gt;&lt;/div&gt;&lt;div style=&quot;&quot;&gt;&lt;font style=&quot;font-size: 7px;&quot;&gt;Cost: STR;&lt;/font&gt;&lt;/div&gt;" style="text;html=1;strokeColor=none;fillColor=none;spacing=5;spacingTop=-22;whiteSpace=wrap;overflow=hidden;rounded=0;" vertex="1" parent="1">
          <mxGeometry x="110" y="115" width="70" height="100" as="geometry" />
        </mxCell>
        <mxCell id="dxZAeb_6qD5I8CAQ3KL4-94" value="" style="endArrow=classic;html=1;rounded=0;entryX=0.5;entryY=1;entryDx=0;entryDy=0;exitX=0.5;exitY=0;exitDx=0;exitDy=0;" edge="1" parent="1" source="dxZAeb_6qD5I8CAQ3KL4-34" target="dxZAeb_6qD5I8CAQ3KL4-91">
          <mxGeometry width="50" height="50" relative="1" as="geometry">
            <mxPoint x="540" y="69.83" as="sourcePoint" />
            <mxPoint x="510" y="69.83" as="targetPoint" />
          </mxGeometry>
        </mxCell>
        <mxCell id="dxZAeb_6qD5I8CAQ3KL4-95" value="" style="endArrow=classic;html=1;rounded=0;entryX=0.024;entryY=0.291;entryDx=0;entryDy=0;exitX=1;exitY=0.25;exitDx=0;exitDy=0;entryPerimeter=0;" edge="1" parent="1" source="dxZAeb_6qD5I8CAQ3KL4-91" target="dxZAeb_6qD5I8CAQ3KL4-29">
          <mxGeometry width="50" height="50" relative="1" as="geometry">
            <mxPoint x="550" y="79.83" as="sourcePoint" />
            <mxPoint x="520" y="79.83" as="targetPoint" />
          </mxGeometry>
        </mxCell>
        <mxCell id="dxZAeb_6qD5I8CAQ3KL4-96" value="" style="rounded=0;whiteSpace=wrap;html=1;" vertex="1" parent="1">
          <mxGeometry x="110" y="500" width="120" height="70" as="geometry" />
        </mxCell>
        <mxCell id="dxZAeb_6qD5I8CAQ3KL4-100" value="" style="endArrow=none;html=1;rounded=0;exitX=0.871;exitY=1.007;exitDx=0;exitDy=0;exitPerimeter=0;" edge="1" parent="1" source="dxZAeb_6qD5I8CAQ3KL4-109">
          <mxGeometry width="50" height="50" relative="1" as="geometry">
            <mxPoint x="90" y="205" as="sourcePoint" />
            <mxPoint x="90" y="520" as="targetPoint" />
          </mxGeometry>
        </mxCell>
        <mxCell id="dxZAeb_6qD5I8CAQ3KL4-139" value="Hide admin panel" style="edgeLabel;html=1;align=center;verticalAlign=middle;resizable=0;points=[];rotation=-90;" vertex="1" connectable="0" parent="dxZAeb_6qD5I8CAQ3KL4-100">
          <mxGeometry x="-0.4894" y="-1" relative="1" as="geometry">
            <mxPoint as="offset" />
          </mxGeometry>
        </mxCell>
        <mxCell id="dxZAeb_6qD5I8CAQ3KL4-101" value="" style="endArrow=classic;html=1;rounded=0;entryX=-0.007;entryY=0.287;entryDx=0;entryDy=0;entryPerimeter=0;" edge="1" parent="1" target="dxZAeb_6qD5I8CAQ3KL4-96">
          <mxGeometry width="50" height="50" relative="1" as="geometry">
            <mxPoint x="90" y="520" as="sourcePoint" />
            <mxPoint x="140" y="465" as="targetPoint" />
          </mxGeometry>
        </mxCell>
        <mxCell id="dxZAeb_6qD5I8CAQ3KL4-118" style="edgeStyle=orthogonalEdgeStyle;rounded=0;orthogonalLoop=1;jettySize=auto;html=1;exitX=1;exitY=0.5;exitDx=0;exitDy=0;" edge="1" parent="1">
          <mxGeometry relative="1" as="geometry">
            <mxPoint x="330" y="520" as="targetPoint" />
            <mxPoint x="215" y="519.74" as="sourcePoint" />
          </mxGeometry>
        </mxCell>
        <mxCell id="dxZAeb_6qD5I8CAQ3KL4-123" value="Enter goods id&amp;nbsp;" style="edgeLabel;html=1;align=center;verticalAlign=middle;resizable=0;points=[];labelBorderColor=default;" vertex="1" connectable="0" parent="dxZAeb_6qD5I8CAQ3KL4-118">
          <mxGeometry x="-0.2477" y="1" relative="1" as="geometry">
            <mxPoint x="20" y="1" as="offset" />
          </mxGeometry>
        </mxCell>
        <mxCell id="dxZAeb_6qD5I8CAQ3KL4-104" value="Edit goods card" style="rounded=0;whiteSpace=wrap;html=1;fontSize=7;fillColor=#636363;strokeColor=#FFFFFF;" vertex="1" parent="1">
          <mxGeometry x="170" y="510" width="50" height="20" as="geometry" />
        </mxCell>
        <mxCell id="dxZAeb_6qD5I8CAQ3KL4-105" value="Add new goods card" style="rounded=0;whiteSpace=wrap;html=1;fontSize=7;fillColor=#008a00;strokeColor=#FFFFFF;fontColor=#ffffff;" vertex="1" parent="1">
          <mxGeometry x="120" y="510" width="50" height="20" as="geometry" />
        </mxCell>
        <mxCell id="dxZAeb_6qD5I8CAQ3KL4-106" value="" style="endArrow=classic;html=1;rounded=0;" edge="1" parent="1">
          <mxGeometry width="50" height="50" relative="1" as="geometry">
            <mxPoint x="359.6" y="85" as="sourcePoint" />
            <mxPoint x="359.6" y="125" as="targetPoint" />
          </mxGeometry>
        </mxCell>
        <mxCell id="dxZAeb_6qD5I8CAQ3KL4-107" value="/admin" style="rounded=0;whiteSpace=wrap;html=1;" vertex="1" parent="1">
          <mxGeometry x="20" y="75" width="80" height="35" as="geometry" />
        </mxCell>
        <mxCell id="dxZAeb_6qD5I8CAQ3KL4-108" value="" style="endArrow=none;html=1;rounded=0;exitX=0.876;exitY=0.006;exitDx=0;exitDy=0;exitPerimeter=0;" edge="1" parent="1" source="dxZAeb_6qD5I8CAQ3KL4-107">
          <mxGeometry width="50" height="50" relative="1" as="geometry">
            <mxPoint x="120" y="70" as="sourcePoint" />
            <mxPoint x="90" y="59.5" as="targetPoint" />
          </mxGeometry>
        </mxCell>
        <mxCell id="dxZAeb_6qD5I8CAQ3KL4-109" value="password" style="rounded=0;whiteSpace=wrap;html=1;" vertex="1" parent="1">
          <mxGeometry x="20" y="125" width="80" height="30" as="geometry" />
        </mxCell>
        <mxCell id="dxZAeb_6qD5I8CAQ3KL4-113" value="Back to main" style="rounded=0;whiteSpace=wrap;html=1;fillColor=#fad9d5;strokeColor=none;" vertex="1" parent="1">
          <mxGeometry x="120" y="540" width="100" height="20" as="geometry" />
        </mxCell>
        <mxCell id="dxZAeb_6qD5I8CAQ3KL4-114" value="" style="endArrow=none;html=1;rounded=0;exitX=0.871;exitY=1.007;exitDx=0;exitDy=0;exitPerimeter=0;" edge="1" parent="1">
          <mxGeometry width="50" height="50" relative="1" as="geometry">
            <mxPoint x="10" y="25" as="sourcePoint" />
            <mxPoint x="10" y="550" as="targetPoint" />
          </mxGeometry>
        </mxCell>
        <mxCell id="dxZAeb_6qD5I8CAQ3KL4-115" value="" style="endArrow=none;html=1;rounded=0;exitX=-0.001;exitY=0.712;exitDx=0;exitDy=0;exitPerimeter=0;" edge="1" parent="1" source="dxZAeb_6qD5I8CAQ3KL4-96">
          <mxGeometry width="50" height="50" relative="1" as="geometry">
            <mxPoint x="20" y="35" as="sourcePoint" />
            <mxPoint x="10" y="550" as="targetPoint" />
          </mxGeometry>
        </mxCell>
        <mxCell id="dxZAeb_6qD5I8CAQ3KL4-116" value="" style="endArrow=none;html=1;rounded=0;" edge="1" parent="1">
          <mxGeometry width="50" height="50" relative="1" as="geometry">
            <mxPoint x="280" y="25" as="sourcePoint" />
            <mxPoint x="10" y="25" as="targetPoint" />
          </mxGeometry>
        </mxCell>
        <mxCell id="dxZAeb_6qD5I8CAQ3KL4-117" value="" style="endArrow=classic;html=1;rounded=0;" edge="1" parent="1">
          <mxGeometry width="50" height="50" relative="1" as="geometry">
            <mxPoint x="280" y="25" as="sourcePoint" />
            <mxPoint x="310" y="25" as="targetPoint" />
          </mxGeometry>
        </mxCell>
        <mxCell id="dxZAeb_6qD5I8CAQ3KL4-124" value="" style="endArrow=none;html=1;rounded=0;exitX=1.002;exitY=0.55;exitDx=0;exitDy=0;exitPerimeter=0;" edge="1" parent="1" source="dxZAeb_6qD5I8CAQ3KL4-91">
          <mxGeometry width="50" height="50" relative="1" as="geometry">
            <mxPoint x="190" y="210" as="sourcePoint" />
            <mxPoint x="220" y="170" as="targetPoint" />
          </mxGeometry>
        </mxCell>
        <mxCell id="dxZAeb_6qD5I8CAQ3KL4-125" value="" style="endArrow=none;html=1;rounded=0;" edge="1" parent="1">
          <mxGeometry width="50" height="50" relative="1" as="geometry">
            <mxPoint x="220" y="390" as="sourcePoint" />
            <mxPoint x="220" y="170" as="targetPoint" />
          </mxGeometry>
        </mxCell>
        <mxCell id="dxZAeb_6qD5I8CAQ3KL4-126" value="" style="endArrow=none;html=1;rounded=0;" edge="1" parent="1">
          <mxGeometry width="50" height="50" relative="1" as="geometry">
            <mxPoint x="220" y="390" as="sourcePoint" />
            <mxPoint x="360" y="390" as="targetPoint" />
          </mxGeometry>
        </mxCell>
        <mxCell id="dxZAeb_6qD5I8CAQ3KL4-131" value="Goods full info" style="edgeLabel;html=1;align=center;verticalAlign=middle;resizable=0;points=[];" vertex="1" connectable="0" parent="dxZAeb_6qD5I8CAQ3KL4-126">
          <mxGeometry x="-0.2807" relative="1" as="geometry">
            <mxPoint as="offset" />
          </mxGeometry>
        </mxCell>
        <mxCell id="dxZAeb_6qD5I8CAQ3KL4-127" value="" style="endArrow=none;html=1;rounded=0;" edge="1" parent="1">
          <mxGeometry width="50" height="50" relative="1" as="geometry">
            <mxPoint x="360" y="480" as="sourcePoint" />
            <mxPoint x="360" y="390" as="targetPoint" />
          </mxGeometry>
        </mxCell>
        <mxCell id="dxZAeb_6qD5I8CAQ3KL4-128" value="" style="rounded=0;whiteSpace=wrap;html=1;" vertex="1" parent="1">
          <mxGeometry x="330" y="500" width="120" height="70" as="geometry" />
        </mxCell>
        <mxCell id="dxZAeb_6qD5I8CAQ3KL4-129" value="" style="endArrow=classic;html=1;rounded=0;entryX=0.25;entryY=0;entryDx=0;entryDy=0;" edge="1" parent="1" target="dxZAeb_6qD5I8CAQ3KL4-128">
          <mxGeometry width="50" height="50" relative="1" as="geometry">
            <mxPoint x="360" y="480" as="sourcePoint" />
            <mxPoint x="450" y="440" as="targetPoint" />
          </mxGeometry>
        </mxCell>
        <mxCell id="dxZAeb_6qD5I8CAQ3KL4-130" value="" style="endArrow=classic;html=1;rounded=0;exitX=0.874;exitY=1.015;exitDx=0;exitDy=0;exitPerimeter=0;entryX=0.874;entryY=0.011;entryDx=0;entryDy=0;entryPerimeter=0;" edge="1" parent="1" source="dxZAeb_6qD5I8CAQ3KL4-107" target="dxZAeb_6qD5I8CAQ3KL4-109">
          <mxGeometry width="50" height="50" relative="1" as="geometry">
            <mxPoint x="190" y="70" as="sourcePoint" />
            <mxPoint x="220" y="70" as="targetPoint" />
          </mxGeometry>
        </mxCell>
        <mxCell id="dxZAeb_6qD5I8CAQ3KL4-132" value="Delete card" style="rounded=0;whiteSpace=wrap;html=1;fontSize=7;fillColor=#636363;strokeColor=#FFFFFF;" vertex="1" parent="1">
          <mxGeometry x="390" y="540" width="50" height="20" as="geometry" />
        </mxCell>
        <mxCell id="dxZAeb_6qD5I8CAQ3KL4-133" value="Edit photo&lt;br&gt;(link)" style="rounded=0;whiteSpace=wrap;html=1;fontSize=7;fillColor=#636363;strokeColor=#FFFFFF;" vertex="1" parent="1">
          <mxGeometry x="342.5" y="510" width="47.5" height="20" as="geometry" />
        </mxCell>
        <mxCell id="dxZAeb_6qD5I8CAQ3KL4-134" value="Edit cost" style="rounded=0;whiteSpace=wrap;html=1;fontSize=7;fillColor=#636363;strokeColor=#FFFFFF;" vertex="1" parent="1">
          <mxGeometry x="390" y="510" width="50" height="20" as="geometry" />
        </mxCell>
        <mxCell id="dxZAeb_6qD5I8CAQ3KL4-135" value="Description" style="rounded=0;whiteSpace=wrap;html=1;fontSize=7;fillColor=#636363;strokeColor=#FFFFFF;" vertex="1" parent="1">
          <mxGeometry x="342.5" y="540" width="47.5" height="20" as="geometry" />
        </mxCell>
        <mxCell id="dxZAeb_6qD5I8CAQ3KL4-143" value="" style="endArrow=classic;html=1;rounded=0;" edge="1" parent="1" source="dxZAeb_6qD5I8CAQ3KL4-128">
          <mxGeometry width="50" height="50" relative="1" as="geometry">
            <mxPoint x="450" y="585" as="sourcePoint" />
            <mxPoint x="480" y="535" as="targetPoint" />
          </mxGeometry>
        </mxCell>
        <mxCell id="dxZAeb_6qD5I8CAQ3KL4-144" value="Confirm last action? (ACTION)" style="rounded=0;whiteSpace=wrap;html=1;verticalAlign=top;" vertex="1" parent="1">
          <mxGeometry x="480" y="500" width="100" height="70" as="geometry" />
        </mxCell>
        <mxCell id="dxZAeb_6qD5I8CAQ3KL4-145" value="Y" style="rounded=0;whiteSpace=wrap;html=1;fillColor=#008a00;strokeColor=none;fontColor=#ffffff;" vertex="1" parent="1">
          <mxGeometry x="490" y="540" width="40" height="20" as="geometry" />
        </mxCell>
        <mxCell id="dxZAeb_6qD5I8CAQ3KL4-146" value="N" style="rounded=0;whiteSpace=wrap;html=1;fillColor=#f8cecc;strokeColor=none;" vertex="1" parent="1">
          <mxGeometry x="530" y="540" width="40" height="20" as="geometry" />
        </mxCell>
        <mxCell id="dxZAeb_6qD5I8CAQ3KL4-148" value="" style="endArrow=none;html=1;rounded=0;entryX=0.5;entryY=1;entryDx=0;entryDy=0;" edge="1" parent="1" target="dxZAeb_6qD5I8CAQ3KL4-146">
          <mxGeometry width="50" height="50" relative="1" as="geometry">
            <mxPoint x="550" y="600" as="sourcePoint" />
            <mxPoint x="590" y="600" as="targetPoint" />
          </mxGeometry>
        </mxCell>
        <mxCell id="dxZAeb_6qD5I8CAQ3KL4-149" value="" style="endArrow=none;html=1;rounded=0;" edge="1" parent="1">
          <mxGeometry width="50" height="50" relative="1" as="geometry">
            <mxPoint x="390" y="600" as="sourcePoint" />
            <mxPoint x="550" y="600" as="targetPoint" />
          </mxGeometry>
        </mxCell>
        <mxCell id="dxZAeb_6qD5I8CAQ3KL4-151" value="" style="endArrow=classic;html=1;rounded=0;entryX=0.588;entryY=1.025;entryDx=0;entryDy=0;entryPerimeter=0;" edge="1" parent="1">
          <mxGeometry width="50" height="50" relative="1" as="geometry">
            <mxPoint x="390" y="600" as="sourcePoint" />
            <mxPoint x="389.99999999999994" y="570" as="targetPoint" />
          </mxGeometry>
        </mxCell>
        <mxCell id="dxZAeb_6qD5I8CAQ3KL4-152" value="" style="endArrow=none;html=1;rounded=0;entryX=0.5;entryY=1;entryDx=0;entryDy=0;jumpStyle=line;" edge="1" parent="1">
          <mxGeometry width="50" height="50" relative="1" as="geometry">
            <mxPoint x="510" y="620" as="sourcePoint" />
            <mxPoint x="509.83" y="560" as="targetPoint" />
          </mxGeometry>
        </mxCell>
        <mxCell id="dxZAeb_6qD5I8CAQ3KL4-153" value="" style="endArrow=none;html=1;rounded=0;jumpStyle=line;" edge="1" parent="1">
          <mxGeometry width="50" height="50" relative="1" as="geometry">
            <mxPoint x="510" y="620" as="sourcePoint" />
            <mxPoint x="160" y="620" as="targetPoint" />
          </mxGeometry>
        </mxCell>
        <mxCell id="dxZAeb_6qD5I8CAQ3KL4-154" value="" style="endArrow=classic;html=1;rounded=0;entryX=0.417;entryY=1.003;entryDx=0;entryDy=0;entryPerimeter=0;" edge="1" parent="1" target="dxZAeb_6qD5I8CAQ3KL4-96">
          <mxGeometry width="50" height="50" relative="1" as="geometry">
            <mxPoint x="160" y="620" as="sourcePoint" />
            <mxPoint x="159.99999999999994" y="590" as="targetPoint" />
          </mxGeometry>
        </mxCell>
        <mxCell id="dxZAeb_6qD5I8CAQ3KL4-155" value="" style="endArrow=none;html=1;rounded=0;jumpStyle=line;" edge="1" parent="1">
          <mxGeometry width="50" height="50" relative="1" as="geometry">
            <mxPoint x="240" y="620" as="sourcePoint" />
            <mxPoint x="240" y="480" as="targetPoint" />
          </mxGeometry>
        </mxCell>
        <mxCell id="dxZAeb_6qD5I8CAQ3KL4-156" value="" style="endArrow=none;html=1;rounded=0;jumpStyle=line;" edge="1" parent="1">
          <mxGeometry width="50" height="50" relative="1" as="geometry">
            <mxPoint x="140" y="480" as="sourcePoint" />
            <mxPoint x="240" y="480" as="targetPoint" />
          </mxGeometry>
        </mxCell>
        <mxCell id="dxZAeb_6qD5I8CAQ3KL4-157" value="" style="endArrow=none;html=1;rounded=0;jumpStyle=line;" edge="1" parent="1">
          <mxGeometry width="50" height="50" relative="1" as="geometry">
            <mxPoint x="140" y="480" as="sourcePoint" />
            <mxPoint x="140" y="330" as="targetPoint" />
          </mxGeometry>
        </mxCell>
        <mxCell id="dxZAeb_6qD5I8CAQ3KL4-158" value="" style="endArrow=classic;html=1;rounded=0;entryX=0.43;entryY=0.991;entryDx=0;entryDy=0;entryPerimeter=0;" edge="1" parent="1" target="dxZAeb_6qD5I8CAQ3KL4-34">
          <mxGeometry width="50" height="50" relative="1" as="geometry">
            <mxPoint x="140" y="330" as="sourcePoint" />
            <mxPoint x="144.93" y="290" as="targetPoint" />
          </mxGeometry>
        </mxCell>
      </root>
    </mxGraphModel>
  </diagram>
</mxfile>
